<svg width="99" height="28" viewBox="0 0 99 28" fill="none" xmlns="http://www.w3.org/2000/svg">
<path d="M63.0947 4.80957C63.1213 4.78497 63.158 4.76953 63.1936 4.76953H66.6278C66.7288 4.76953 66.7985 4.87517 66.7671 4.97416C65.5249 8.94673 70.5622 12.9121 67.161 19.6518C67.1604 19.653 67.1604 19.6526 67.1599 19.6537C67.1413 19.6881 64.3141 24.929 59.5973 27.3662C59.4511 27.4418 59.3405 27.2403 59.4596 27.1247C69.6326 17.2404 55.5964 11.8016 63.0947 4.80957Z" fill="#393939"/>
<path d="M63.8838 3.84765C65.7096 2.22636 68.0303 0.982909 69.2549 0.617188C69.2549 0.617188 68.3524 1.56806 66.9502 3.84765H63.8838Z" fill="#393939"/>
<path d="M7.06313 21.385C9.97518 21.385 13.7543 19.8232 13.7543 15.6717C13.7543 12.4602 10.5521 11.3609 8.06677 10.7233C6.51347 10.3065 4.81372 9.54144 4.81372 8.5606C4.81372 7.40287 5.66733 6.93735 6.92026 6.93735C8.27476 6.93735 8.96214 7.81359 9.02151 8.85321C9.02624 8.93522 9.0904 9.00199 9.17018 9.00199H13.0841C13.1639 9.00199 13.2287 8.93437 13.2271 8.85225C13.1618 5.43556 10.8531 3.38672 6.89586 3.38672C2.95285 3.38672 0.539257 5.32386 0.539257 8.70773C0.539257 11.8652 4.43446 13.1411 6.03557 13.5335C7.63666 13.9258 9.52859 14.6908 9.52859 15.7697C9.52859 16.7015 8.89213 17.6872 7.06313 17.6872C5.30855 17.6872 4.69634 16.7124 4.64941 15.5507C4.64609 15.4687 4.58179 15.4019 4.50204 15.4019H0.468594C0.388839 15.4019 0.323981 15.4696 0.326229 15.5517C0.42642 19.2129 4.19 21.385 7.06313 21.385Z" fill="#393939"/>
<path d="M71.0459 20.7757C71.0459 20.8571 71.106 20.9229 71.1804 20.9229H74.9399C75.0143 20.9229 75.0744 20.8571 75.0744 20.7757V3.99485C75.0744 3.91356 75.0143 3.84766 74.9399 3.84766H71.1804C71.106 3.84766 71.0459 3.91356 71.0459 3.99485V20.7757Z" fill="#393939"/>
<path d="M78.209 20.7757C78.209 20.8571 78.276 20.9229 78.3583 20.9229H82.5357C82.618 20.9229 82.685 20.8571 82.685 20.7757V3.99485C82.685 3.91356 82.618 3.84766 82.5357 3.84766H78.3583C78.276 3.84766 78.209 3.91356 78.209 3.99485V20.7757Z" fill="#393939"/>
<path d="M54.8524 7.53906C54.7891 7.53906 54.7333 7.58153 54.7142 7.64404L52.4689 15.0193C52.4264 15.159 52.2362 15.1593 52.1932 15.0196L49.9254 7.64367C49.9063 7.58132 49.8505 7.53906 49.7876 7.53906H45.2317C45.1289 7.53906 45.0589 7.64739 45.0978 7.74631L50.239 20.8289C50.2612 20.8855 50.3142 20.9224 50.3729 20.9224H54.1943C54.2533 20.9224 54.3065 20.8851 54.3283 20.8282L59.3996 7.74562C59.4379 7.6468 59.3677 7.53906 59.2657 7.53906H54.8524Z" fill="#393939"/>
<path d="M97.7893 11.3178C97.7899 11.3117 97.7893 11.3055 97.7867 11.2998C97.4247 10.4541 96.9049 9.69217 96.258 9.05853C95.6079 8.43589 94.8537 7.94385 94.033 7.60702C93.1974 7.25573 92.3044 7.07623 91.4035 7.07825C90.476 7.07241 89.5575 7.26493 88.7033 7.64402C87.8863 8.00546 87.1401 8.52275 86.5038 9.16957C85.8708 9.81671 85.3663 10.5885 85.0198 11.4406C84.661 12.3233 84.4766 13.2724 84.4766 14.2312C84.4766 15.1902 84.661 16.1393 85.0198 17.0219C85.3642 17.8719 85.8639 18.6434 86.4911 19.293C87.8071 20.6446 89.5819 21.3965 91.4264 21.3843C92.3432 21.3892 93.2554 21.2447 94.1292 20.956C95.0711 20.6174 95.9539 20.1194 96.7411 19.4819C96.7443 19.4793 96.7475 19.4767 96.7507 19.4739C96.7805 19.4447 96.9596 19.2705 97.0149 19.1961C97.0749 19.1147 97.068 19.056 97.0042 19.0174L94.2132 17.3927C94.1818 17.3737 94.143 17.3734 94.1111 17.3915C93.8018 17.5666 93.4068 17.7807 93.0364 17.8469C92.6664 17.9131 92.0695 17.9712 91.5327 17.9737C91.1409 17.9782 90.7508 17.9129 90.3798 17.7807C90.0433 17.6592 89.7281 17.4805 89.4469 17.2519C89.1758 17.0551 88.9414 16.8088 88.7538 16.5249C88.6789 16.4057 88.6098 16.2936 88.5481 16.1869C88.5072 16.1164 88.5561 16.0278 88.6353 16.0278H98.0923C98.1428 16.0278 98.1858 15.9897 98.1938 15.9378L98.2379 15.6603C98.2656 15.4276 98.2959 15.1659 98.3187 14.9358C98.3421 14.7031 98.3527 14.4692 98.3517 14.2352C98.3623 13.2381 98.1715 12.2499 97.7914 11.3355C97.7893 11.3299 97.7883 11.3238 97.7893 11.3178ZM88.5539 12.9114C88.4774 12.9114 88.4274 12.8271 88.462 12.7558C88.7086 12.2482 89.0334 11.6163 89.4209 11.269C89.9588 10.823 90.7125 10.5865 91.3987 10.6001C92.0934 10.5834 92.8567 10.8168 93.4068 11.261C93.7986 11.6101 94.1265 12.2449 94.3753 12.7557C94.4104 12.827 94.3604 12.9114 94.2833 12.9114H88.5539Z" fill="#393939"/>
<path d="M22.1531 21.3839C25.698 21.3839 28.4159 19.0669 28.9716 15.6316C28.9849 15.5492 28.9219 15.4745 28.8398 15.4745H24.7618C24.7028 15.4745 24.651 15.5137 24.6315 15.5704C24.2532 16.6734 23.3038 17.38 22.1531 17.38C20.6141 17.38 19.5013 16.1499 19.5013 14.4373C19.5013 12.749 20.6141 11.543 22.1531 11.543C23.2792 11.543 24.2268 12.202 24.6062 13.2113C24.6268 13.2662 24.6778 13.3037 24.7354 13.3037H28.7922C28.8743 13.3037 28.9374 13.2289 28.9238 13.1463C28.3693 9.7614 25.7208 7.53906 22.1767 7.53906C18.0335 7.53906 15.0977 10.4093 15.0977 14.4373C15.0977 18.4654 18.0571 21.3839 22.1531 21.3839Z" fill="#393939"/>
<path d="M37.4652 21.3845C41.632 21.3845 44.6387 18.3739 44.6387 14.2189C44.6387 10.0638 41.632 7.07812 37.4652 7.07812C33.2984 7.07812 30.3154 10.0638 30.3154 14.2189C30.3154 18.3739 33.2984 21.3845 37.4652 21.3845ZM37.4652 17.2294C35.879 17.2294 34.7189 16.0103 34.7189 14.2438C34.7189 12.4523 35.879 11.2332 37.4652 11.2332C39.0751 11.2332 40.2352 12.4772 40.2352 14.2438C40.2352 16.0103 39.0751 17.2294 37.4652 17.2294Z" fill="#393939"/>
</svg>
