<svg width="1201" height="243" viewBox="0 0 1201 243" fill="none" xmlns="http://www.w3.org/2000/svg">
<path opacity="0.3" d="M387.484 77.2046L9.60796 114.459C-1.99716 115.611 -1.99659 128.355 9.60863 129.506L387.484 166.7C411.267 140.899 410.582 102.36 387.484 77.2046Z" fill="url(#paint0_linear_567_33577)"/>
<path opacity="0.5" d="M387.484 77.2043C410.582 102.359 411.267 140.898 387.484 166.7C363.702 140.898 364.387 102.359 387.484 77.2043Z" fill="url(#paint1_linear_567_33577)"/>
<path opacity="0.3" d="M732.139 42.9089L387.484 77.2044C410.582 102.359 411.267 140.898 387.484 166.7L732.139 200.996C774.149 155.419 772.939 87.3432 732.139 42.9089Z" fill="url(#paint2_linear_567_33577)"/>
<path opacity="0.4" d="M1153.47 242.919C1217.77 173.169 1215.91 68.9873 1153.47 0.986084L732.139 42.9088C772.939 87.3431 774.149 155.419 732.139 200.996L1153.47 242.919Z" fill="url(#paint3_linear_567_33577)"/>
<g opacity="0.5" filter="url(#filter0_b_567_33577)">
<path d="M732.139 42.9089C691.339 87.3432 690.129 155.419 732.139 200.996C774.149 155.419 772.939 87.3432 732.139 42.9089Z" fill="url(#paint4_linear_567_33577)"/>
</g>
<mask id="path-6-inside-1_567_33577" fill="white">
<path d="M1153.47 0.986084C1091.03 68.9873 1089.18 173.169 1153.47 242.919C1217.77 173.169 1215.91 68.9873 1153.47 0.986084Z"/>
</mask>
<path d="M1153.47 0.986084L1154.95 -0.366592L1153.47 -1.97102L1152 -0.366592L1153.47 0.986084ZM1153.47 242.919L1152 244.274L1153.47 245.87L1154.94 244.274L1153.47 242.919ZM1152 -0.366592C1088.87 68.3838 1086.99 173.743 1152 244.274L1154.94 241.563C1091.37 172.595 1093.2 69.5908 1154.95 2.33876L1152 -0.366592ZM1152 2.33876C1213.75 69.5908 1215.57 172.595 1152 241.563L1154.94 244.274C1219.96 173.743 1218.07 68.3838 1154.95 -0.366592L1152 2.33876Z" fill="white" mask="url(#path-6-inside-1_567_33577)"/>
<mask id="path-8-inside-2_567_33577" fill="white">
<path d="M387.153 77.2043C410.25 102.359 410.935 140.898 387.153 166.7C363.37 140.898 364.055 102.359 387.153 77.2043Z"/>
</mask>
<path d="M387.153 77.2043L388.626 75.8517L387.153 74.2472L385.679 75.8517L387.153 77.2043ZM387.153 166.7L385.682 168.056L387.153 169.651L388.623 168.056L387.153 166.7ZM385.679 78.557C408.089 102.963 408.744 140.324 385.682 165.345L388.623 168.056C413.126 141.472 412.411 101.756 388.626 75.8517L385.679 78.557ZM385.679 75.8517C361.894 101.756 361.179 141.472 385.682 168.056L388.623 165.345C365.561 140.324 366.216 102.963 388.626 78.557L385.679 75.8517Z" fill="white" mask="url(#path-8-inside-2_567_33577)"/>
<mask id="path-10-inside-3_567_33577" fill="white">
<path d="M733.139 42.9089C692.339 87.3432 691.129 155.419 733.139 200.996C775.149 155.419 773.939 87.3432 733.139 42.9089Z"/>
</mask>
<path d="M733.139 42.9089L734.612 41.5563L733.139 39.9518L731.666 41.5563L733.139 42.9089ZM733.139 200.996L731.668 202.351L733.139 203.947L734.61 202.351L733.139 200.996ZM731.666 41.5563C690.178 86.7397 688.938 155.993 731.668 202.351L734.61 199.64C693.32 154.845 694.501 87.9467 734.612 44.2616L731.666 41.5563ZM731.666 44.2616C771.777 87.9467 772.958 154.845 731.668 199.64L734.61 202.351C777.34 155.993 776.1 86.7397 734.612 41.5563L731.666 44.2616Z" fill="white" mask="url(#path-10-inside-3_567_33577)"/>
<defs>
<filter id="filter0_b_567_33577" x="697.084" y="38.9089" width="70.1107" height="166.087" filterUnits="userSpaceOnUse" color-interpolation-filters="sRGB">
<feFlood flood-opacity="0" result="BackgroundImageFix"/>
<feGaussianBlur in="BackgroundImage" stdDeviation="2"/>
<feComposite in2="SourceAlpha" operator="in" result="effect1_backgroundBlur_567_33577"/>
<feBlend mode="normal" in="SourceGraphic" in2="effect1_backgroundBlur_567_33577" result="shape"/>
</filter>
<linearGradient id="paint0_linear_567_33577" x1="348.504" y1="156.999" x2="333.382" y2="48.9811" gradientUnits="userSpaceOnUse">
<stop stop-color="#C0E8A0"/>
<stop offset="1" stop-color="#50C9C3"/>
</linearGradient>
<linearGradient id="paint1_linear_567_33577" x1="372.664" y1="77.1061" x2="436.572" y2="120.03" gradientUnits="userSpaceOnUse">
<stop stop-color="#51ABFF"/>
<stop offset="1" stop-color="#65F0E8"/>
</linearGradient>
<linearGradient id="paint2_linear_567_33577" x1="416.984" y1="42.7354" x2="473.586" y2="272.7" gradientUnits="userSpaceOnUse">
<stop stop-color="#51ABFF"/>
<stop offset="1" stop-color="#65F0E8"/>
</linearGradient>
<linearGradient id="paint3_linear_567_33577" x1="732.139" y1="0.986084" x2="809.371" y2="339.519" gradientUnits="userSpaceOnUse">
<stop stop-color="#FF7D34"/>
<stop offset="1" stop-color="#FFE465"/>
</linearGradient>
<linearGradient id="paint4_linear_567_33577" x1="701.084" y1="42.9089" x2="816.638" y2="145.594" gradientUnits="userSpaceOnUse">
<stop stop-color="#FF7D34"/>
<stop offset="1" stop-color="#FFE465"/>
</linearGradient>
</defs>
</svg>
